<?xml version="1.0"?>
<svg xmlns="http://www.w3.org/2000/svg" height="512px" viewBox="0 0 480 480" width="512px" class=""><g><path d="m472 240c0 128.128906-103.871094 232-232 232s-232-103.871094-232-232 103.871094-232 232-232 232 103.871094 232 232zm0 0" fill="#f6e8c7" data-original="#F6E8C7" class="" data-old_color="#f6e8c7" style="fill:#E1E6E9"/><path d="m240 72c-92.785156 0-168 75.214844-168 168s75.214844 168 168 168 168-75.214844 168-168-75.214844-168-168-168zm0 288c-66.273438 0-120-53.726562-120-120s53.726562-120 120-120 120 53.726562 120 120-53.726562 120-120 120zm0 0" fill="#dce1ea" data-original="#DCE1EA" class="" data-old_color="#dce1ea" style="fill:#E1E6E9"/><path d="m237.664062 247.5625 4.707032-15.292969 104.019531 31.988281-4.703125 15.296876zm0 0" fill="#d12136" data-original="#D12136" class=""/><path d="m256 240c0 8.835938-7.164062 16-16 16s-16-7.164062-16-16 7.164062-16 16-16 16 7.164062 16 16zm0 0" fill="#9196a9" data-original="#9196A9" class="" data-old_color="#9196a9" style="fill:#9196A9"/><g fill="#354468"><path d="m232 32h16v24h-16zm0 0" data-original="#000000" class="active-path" data-old_color="#000000" style="fill:#00A9A5"/><path d="m178.4375 41.160156 15.457031-4.140625 6.210938 23.179688-15.453125 4.144531zm0 0" data-original="#000000" class="active-path" data-old_color="#000000" style="fill:#00A9A5"/><path d="m129.070312 63.863281 13.859376-8 12 20.785157-13.859376 8zm0 0" data-original="#000000" class="active-path" data-old_color="#000000" style="fill:#00A9A5"/><path d="m87.265625 98.578125 11.3125-11.3125 16.972656 16.972656-11.3125 11.3125zm0 0" data-original="#000000" class="active-path" data-old_color="#000000" style="fill:#00A9A5"/><path d="m55.863281 142.929688 8-13.855469 20.785157 12-8 13.855469zm0 0" data-original="#000000" class="active-path" data-old_color="#000000" style="fill:#00A9A5"/><path d="m37.019531 193.890625 4.140625-15.453125 23.183594 6.214844-4.144531 15.453125zm0 0" data-original="#000000" class="active-path" data-old_color="#000000" style="fill:#00A9A5"/><path d="m32 232h24v16h-24zm0 0" data-original="#000000" class="active-path" data-old_color="#000000" style="fill:#00A9A5"/><path d="m279.898438 60.199219 6.210937-23.183594 15.453125 4.140625-6.210938 23.183594zm0 0" data-original="#000000" class="active-path" data-old_color="#000000" style="fill:#00A9A5"/><path d="m325.070312 76.65625 11.996094-20.789062 13.859375 8-12 20.785156zm0 0" data-original="#000000" class="active-path" data-old_color="#000000" style="fill:#00A9A5"/><path d="m364.449219 104.238281 16.96875-16.972656 11.316406 11.316406-16.972656 16.96875zm0 0" data-original="#000000" class="active-path" data-old_color="#000000" style="fill:#00A9A5"/><path d="m395.34375 141.074219 20.785156-12 8 13.859375-20.785156 11.996094zm0 0" data-original="#000000" class="active-path" data-old_color="#000000" style="fill:#00A9A5"/><path d="m415.660156 184.648438 23.183594-6.214844 4.140625 15.457031-23.183594 6.210937zm0 0" data-original="#000000" class="active-path" data-old_color="#000000" style="fill:#00A9A5"/><path d="m424 232h24v16h-24zm0 0" data-original="#000000" class="active-path" data-old_color="#000000" style="fill:#00A9A5"/><path d="m415.652344 295.34375 4.144531-15.453125 23.179687 6.214844-4.144531 15.453125zm0 0" data-original="#000000" class="active-path" data-old_color="#000000" style="fill:#00A9A5"/></g><path d="m240 80c-88.367188 0-160 71.632812-160 160h32c0-70.691406 57.308594-128 128-128zm0 0" fill="#2cb357" data-original="#2CB357" class=""/><path d="m400 240c0-88.367188-71.632812-160-160-160v32c70.691406 0 128 57.308594 128 128zm0 0" fill="#ffbc05" data-original="#FFBC05" class=""/><path d="m368 240c.035156 22.472656-5.875 44.550781-17.128906 64l27.714844 16c14.070312-24.308594 21.457031-51.910156 21.414062-80zm0 0" fill="#d12136" data-original="#D12136" class=""/><path d="m395.339844 338.925781 8-13.855469 20.785156 11.996094-8 13.859375zm0 0" fill="#354468" data-original="#354468" class="" data-old_color="#354468" style="fill:#00A9A5"/><path d="m240 480c-132.546875 0-240-107.453125-240-240s107.453125-240 240-240 240 107.453125 240 240c-.148438 132.484375-107.515625 239.851562-240 240zm0-464c-123.710938 0-224 100.289062-224 224s100.289062 224 224 224 224-100.289062 224-224c-.140625-123.652344-100.347656-223.859375-224-224zm0 0" fill="#e38100" data-original="#E38100" class="" style="fill:#E1E6E9" data-old_color="#e38100"/><path d="m55.007812 415.617188 99.390626-161.472657c2.914062-4.730469 8.070312-7.609375 13.625-7.609375 5.554687 0 10.710937 2.878906 13.625 7.609375l99.34375 161.472657c3.035156 4.933593 3.167968 11.128906.339843 16.1875-2.828125 5.058593-8.167969 8.195312-13.964843 8.195312h-198.734376c-5.796874 0-11.136718-3.136719-13.964843-8.195312-2.828125-5.058594-2.695313-11.253907.339843-16.1875zm0 0" fill="#ffbc05" data-original="#FFBC05" class=""/><path d="m184 400c0 8.835938-7.164062 16-16 16s-16-7.164062-16-16 7.164062-16 16-16 16 7.164062 16 16zm0 0" fill="#354468" data-original="#354468" class="" data-old_color="#354468" style="fill:#00A9A5"/><path d="m152 312c0-8.835938 7.164062-16 16-16s16 7.164062 16 16l-6.6875 40.113281c-.757812 4.550781-4.695312 7.890625-9.3125 7.886719-4.617188.003906-8.554688-3.335938-9.3125-7.886719zm0 0" fill="#354468" data-original="#354468" class="" data-old_color="#354468" style="fill:#00A9A5"/></g> </svg>
