<?xml version="1.0" encoding="utf-8"?>
<!-- Generator: Adobe Illustrator 16.0.0, SVG Export Plug-In . SVG Version: 6.00 Build 0)  -->
<!DOCTYPE svg PUBLIC "-//W3C//DTD SVG 1.1//EN" "http://www.w3.org/Graphics/SVG/1.1/DTD/svg11.dtd">
<svg version="1.1" id="Layer_1" xmlns="http://www.w3.org/2000/svg" xmlns:xlink="http://www.w3.org/1999/xlink" x="0px" y="0px"
	 width="360px" height="360px" viewBox="0 0 360 360" enable-background="new 0 0 360 360" xml:space="preserve">
<g>
	<g>
		<g>
			<g>
				<path fill="#666666" d="M307.258,312.784c-1.889,0-3.658-0.928-4.732-2.482c-1.073-1.555-1.314-3.539-0.645-5.306l16.502-43.541
					l-1.453-0.693c-7.48-3.569-12.314-11.215-12.314-19.479c0-9.23,5.879-17.435,14.629-20.417l1.186-0.403v-58.785L297,173.394
					v58.396c0,34.416-51.393,61.375-117,61.375c-65.607,0-117-26.959-117-61.375v-58.396L4.929,144.358
					c-1.961-0.979-3.179-2.95-3.179-5.142c0-2.192,1.218-4.162,3.179-5.143l172.5-86.25c0.794-0.397,1.683-0.607,2.571-0.607
					s1.777,0.21,2.572,0.607l172.5,86.25c1.961,0.98,3.179,2.951,3.179,5.143c0,2.192-1.218,4.163-3.177,5.143l-23.142,11.57v64.534
					l1.186,0.403c8.754,2.982,14.635,11.188,14.635,20.418c0,8.262-4.834,15.907-12.314,19.479l-1.453,0.693l16.502,43.541
					c0.67,1.767,0.429,3.749-0.646,5.305c-1.073,1.555-2.843,2.482-4.731,2.482H307.258z M315.584,301.286h21.195l-10.598-27.959
					L315.584,301.286z M74.5,231.791c0,12.385,10.718,24.847,29.406,34.19c20.231,10.115,47.255,15.686,76.094,15.686
					c28.839,0,55.864-5.57,76.093-15.686c18.688-9.344,29.407-21.806,29.407-34.19v-52.646l-102.929,51.464
					c-0.795,0.397-1.685,0.607-2.572,0.607c-0.888,0-1.777-0.21-2.57-0.606L74.5,179.145V231.791z M326.137,231.219
					c-5.527,0.024-10.023,4.54-10.023,10.065c0,5.552,4.517,10.068,10.068,10.068c2.686,0,5.213-1.048,7.116-2.951
					s2.951-4.432,2.95-7.118c0-5.525-4.497-10.041-10.023-10.064H326.137z M20.357,139.216L180,219.038l125.434-62.719
					l-125.955-11.374c-3.157-0.285-5.494-3.086-5.209-6.244c0.27-2.984,2.727-5.234,5.714-5.234c0.175,0,0.352,0.008,0.529,0.024
					l144.482,13.047l14.646-7.323L180,59.395L20.357,139.216z"/>
				<path fill="#FFFFFF" d="M180,48.966c0.618,0,1.236,0.146,1.789,0.422l172.5,86.25c1.364,0.682,2.212,2.053,2.212,3.578
					c0,1.525-0.847,2.896-2.21,3.578l-22.174,11.086l-1.935,0.967v2.163v62.2v2.505l2.371,0.809
					c8.045,2.74,13.449,10.279,13.449,18.761c0,7.591-4.442,14.616-11.318,17.899l-2.906,1.387l1.142,3.012l15.932,42.035
					c0.465,1.229,0.298,2.608-0.449,3.689c-0.747,1.082-1.978,1.728-3.292,1.728h-37.852c-1.314,0-2.545-0.646-3.292-1.727
					c-0.747-1.082-0.914-2.462-0.449-3.691l15.932-42.035l1.142-3.012l-2.907-1.388c-6.875-3.28-11.317-10.306-11.317-17.898
					c0-8.481,5.402-16.021,13.443-18.761l2.371-0.808v-2.505v-54.7v-5.663l-5.065,2.533l-19.93,9.965l-1.935,0.967v2.163v57.315
					c0,15.764-11.559,30.59-32.547,41.746c-21.688,11.529-51.061,17.879-82.704,17.879c-31.642,0-61.013-6.35-82.702-17.879
					C76.309,262.379,64.75,247.553,64.75,231.79v-57.315v-2.163l-1.935-0.967L5.71,142.792c-1.364-0.682-2.211-2.052-2.211-3.577
					c0-1.524,0.848-2.896,2.212-3.578l172.5-86.25C178.764,49.112,179.382,48.966,180,48.966 M180,220.994l1.565-0.782
					l119.144-59.573l11.017-5.508l-12.268-1.108l-119.82-10.82c-2.196-0.198-3.822-2.147-3.624-4.343
					c0.185-2.042,1.929-3.642,3.972-3.642c0.122,0,0.246,0.005,0.373,0.017l143.987,13.002l0.99,0.089l0.89-0.445l11.07-5.535
					l6.261-3.13l-6.261-3.13L181.564,58.221L180,57.438l-1.565,0.783L22.705,136.085l-6.261,3.13l6.261,3.13l155.729,77.866
					L180,220.994 M180,229.467c-0.618,0-1.235-0.146-1.788-0.423L77.815,178.846l-5.065-2.533v5.663v49.814
					c0,13.072,11.071,26.104,30.373,35.756c20.47,10.233,47.771,15.87,76.876,15.87c29.106,0,56.408-5.637,76.876-15.87
					c19.303-9.651,30.374-22.684,30.374-35.756v-49.814v-5.663l-5.065,2.533l-100.396,50.198
					C181.235,229.32,180.617,229.467,180,229.467 M326.182,253.103c3.153,0,6.12-1.23,8.354-3.464
					c2.234-2.234,3.464-5.202,3.463-8.354c0-6.486-5.276-11.786-11.778-11.815h-0.009h-0.082
					c-6.487,0.029-11.766,5.329-11.766,11.815C314.363,247.801,319.665,253.103,326.182,253.103 M313.05,303.036h5.069h16.125h5.069
					l-1.797-4.74l-8.062-21.271l-3.272-8.635l-3.272,8.635l-8.062,21.271L313.05,303.036 M180,45.466
					c-1.149,0-2.298,0.264-3.354,0.792l-172.5,86.25C1.605,133.778,0,136.376,0,139.216c0,2.841,1.605,5.438,4.146,6.708
					l57.104,28.552v57.315c0,35.396,52.162,63.125,118.75,63.125c66.59,0,118.75-27.727,118.75-63.125v-57.315l19.93-9.965v54.7
					c-9.188,3.131-15.814,11.84-15.814,22.073c0,9.278,5.447,17.306,13.311,21.058l-15.932,42.035
					c-0.873,2.305-0.559,4.892,0.842,6.92c1.4,2.027,3.707,3.238,6.172,3.238h37.852c2.463,0,4.771-1.211,6.172-3.238
					c1.4-2.028,1.715-4.615,0.842-6.919l-15.932-42.035c7.861-3.753,13.311-11.779,13.311-21.058
					c0-10.234-6.631-18.943-15.82-22.074v-62.2l22.174-11.086c2.541-1.271,4.145-3.868,4.145-6.708c0-2.84-1.605-5.438-4.146-6.708
					l-172.5-86.25C182.298,45.73,181.148,45.466,180,45.466L180,45.466z M180,217.081L24.27,139.216L180,61.352l155.729,77.865
					l-11.07,5.535l-143.986-13.002c-0.23-0.021-0.46-0.031-0.688-0.031c-3.836,0-7.105,2.932-7.458,6.827
					c-0.372,4.126,2.67,7.771,6.795,8.144l119.821,10.82L180,217.081L180,217.081z M180,232.967c1.149,0,2.297-0.264,3.354-0.792
					l100.396-50.198v49.814c0,11.697-10.365,23.589-28.439,32.625c-19.99,9.995-46.736,15.501-75.311,15.501
					c-28.574,0-55.32-5.506-75.311-15.501c-18.072-9.036-28.438-20.928-28.438-32.625v-49.814l100.396,50.198
					C177.702,232.703,178.851,232.967,180,232.967L180,232.967z M326.18,232.97c0.014,0,0.025-0.001,0.037-0.001
					c4.568,0.02,8.281,3.741,8.281,8.315c0.002,4.588-3.73,8.318-8.316,8.318s-8.318-3.731-8.318-8.318
					c0-4.574,3.713-8.295,8.281-8.315C326.156,232.969,326.168,232.97,326.18,232.97L326.18,232.97z M318.119,299.536l8.062-21.271
					l8.062,21.271H318.119L318.119,299.536z"/>
			</g>
		</g>
	</g>
	<circle fill="#EF4123" cx="326.333" cy="241.001" r="12.167"/>
	<polygon fill="#EF4123" points="324.834,261.168 308.5,304.168 341.5,304.168 326.334,261.168 	"/>
</g>
</svg>
